<?xml version="1.0" standalone="no"?>
<!DOCTYPE svg PUBLIC "-//W3C//DTD SVG 20010904//EN"
 "http://www.w3.org/TR/2001/REC-SVG-20010904/DTD/svg10.dtd">
<svg version="1.0" xmlns="http://www.w3.org/2000/svg"
 width="250.000000pt" height="250.000000pt" viewBox="0 0 250.000000 250.000000"
 preserveAspectRatio="xMidYMid meet">

<g transform="translate(0.000000,250.000000) scale(0.100000,-0.100000)"
fill="#000000" stroke="none">
<path d="M2345 2485 c-22 -8 -42 -15 -45 -15 -2 0 -242 -237 -532 -527 l-528
-528 -523 522 c-287 286 -532 526 -545 533 -52 26 -116 -15 -116 -76 0 -33 32
-67 532 -567 l532 -532 -55 -55 c-50 -49 -57 -53 -66 -37 -15 26 -31 21 -78
-27 l-44 -45 -55 40 c-70 49 -111 52 -153 10 -41 -41 -39 -83 6 -147 19 -27
35 -54 35 -60 0 -5 -13 -23 -30 -39 -35 -33 -36 -42 -13 -67 16 -18 13 -22
-57 -93 -53 -53 -82 -75 -99 -75 -36 0 -424 -386 -417 -414 4 -14 -10 -36 -44
-72 -28 -29 -50 -58 -50 -65 0 -16 133 -149 149 -149 7 0 36 22 65 50 36 34
58 48 72 44 28 -7 414 381 414 417 0 17 22 46 75 99 71 70 75 73 93 57 10 -9
23 -17 28 -17 5 0 62 53 127 118 115 115 118 119 107 147 -11 28 -8 32 77 117
l88 88 62 -62 c58 -57 63 -65 57 -95 -7 -37 3 -57 69 -136 30 -36 37 -51 28
-60 -17 -17 -13 -47 6 -47 9 0 30 12 45 27 l28 27 78 -77 c54 -54 77 -84 79
-103 1 -21 58 -84 253 -279 l253 -253 61 -5 61 -5 54 53 54 53 -7 64 -7 65
-253 251 c-177 177 -258 252 -274 252 -12 0 -22 2 -22 5 0 2 14 26 30 52 17
26 30 54 30 64 0 9 -22 37 -50 63 -49 46 -50 46 -79 31 -39 -20 -39 -19 -33
10 3 20 0 25 -16 25 -11 0 -25 -7 -32 -15 -10 -12 -22 -6 -83 41 -64 50 -76
55 -108 51 -34 -4 -41 -1 -100 59 l-63 64 530 533 c501 502 532 535 543 580
14 58 -2 97 -52 127 -38 23 -40 23 -92 5z m80 -65 c43 -47 39 -51 -523 -613
l-527 -527 -48 48 -47 47 523 522 c287 286 531 526 542 532 31 16 60 13 80 -9z
m-1597 -673 l673 -673 -23 -19 c-23 -19 -23 -19 -5 0 17 19 0 37 -655 692
-370 370 -671 673 -668 673 3 0 308 -303 678 -673z m382 -542 l44 -45 -79 -80
-80 -80 -17 33 c-9 17 -22 47 -29 66 -11 33 -10 34 47 92 32 32 61 59 64 59 3
0 26 -20 50 -45z m-422 -76 c23 -17 42 -34 41 -37 0 -4 -18 -22 -39 -40 l-38
-32 -31 42 c-35 48 -37 60 -15 82 22 22 34 20 82 -15z m236 -111 l57 -122 -91
-90 -90 -91 -90 90 -90 89 118 122 c64 67 120 122 123 123 3 0 31 -54 63 -121z
m573 46 c-3 -3 -12 -4 -19 -1 -8 3 -5 6 6 6 11 1 17 -2 13 -5z m302 -138 l22
-23 -22 -37 c-11 -20 -22 -36 -23 -36 -1 0 -19 18 -40 39 l-39 40 34 20 c42
26 41 26 68 -3z m-99 -103 l75 -78 -80 75 c-44 41 -81 76 -84 78 -2 1 0 2 5 2
5 0 43 -35 84 -77z m-279 50 c13 -16 12 -17 -3 -4 -17 13 -22 21 -14 21 2 0
10 -8 17 -17z m-770 -94 c60 -42 58 -54 -17 -130 l-68 -69 -43 42 -43 42 67
68 c37 37 69 68 71 68 2 0 17 -9 33 -21z m1189 -42 c0 -1 -33 -34 -72 -72
l-73 -70 70 73 c64 67 75 77 75 69z m-1467 -399 l-178 -178 -67 67 -68 68 177
177 178 178 67 -67 68 -68 -177 -177z m1402 182 c38 -38 67 -70 64 -70 -2 0
-36 32 -74 70 -38 39 -67 70 -64 70 2 0 36 -31 74 -70z m160 -160 c21 -22 37
-40 34 -40 -3 0 -23 18 -44 40 -21 22 -37 40 -34 40 3 0 23 -18 44 -40z m130
-130 c21 -22 37 -40 34 -40 -3 0 -23 18 -44 40 -21 22 -37 40 -34 40 3 0 23
-18 44 -40z m-1975 -125 l-40 -40 -42 42 -42 43 39 40 39 40 43 -42 43 -42
-40 -41z m2105 12 c19 -4 19 -5 -1 -6 -12 0 -28 7 -35 17 -12 15 -12 16 1 6 8
-7 24 -14 35 -17z"/>
</g>
</svg>
