<?xml version="1.0" standalone="no"?>
<!DOCTYPE svg PUBLIC "-//W3C//DTD SVG 20010904//EN"
 "http://www.w3.org/TR/2001/REC-SVG-20010904/DTD/svg10.dtd">
<svg version="1.0" xmlns="http://www.w3.org/2000/svg"
 width="250.000000pt" height="250.000000pt" viewBox="0 0 250.000000 250.000000"
 preserveAspectRatio="xMidYMid meet">

<g transform="translate(0.000000,250.000000) scale(0.100000,-0.100000)"
fill="#000000" stroke="none">
<path d="M2340 2488 c-26 -8 -166 -141 -568 -542 l-532 -531 -523 522 c-287
286 -532 526 -544 532 -33 17 -59 13 -89 -13 -21 -18 -28 -32 -28 -60 0 -35
22 -59 532 -569 l532 -532 -55 -55 c-50 -49 -57 -53 -66 -38 -15 27 -31 22
-78 -26 l-44 -45 -55 40 c-67 47 -106 51 -151 13 -44 -36 -42 -82 4 -151 19
-29 35 -56 35 -61 0 -4 -13 -21 -30 -37 -35 -33 -36 -42 -13 -67 16 -18 13
-22 -57 -93 -53 -53 -82 -75 -99 -75 -36 0 -424 -386 -417 -414 4 -14 -10 -36
-44 -72 -28 -29 -50 -58 -50 -65 0 -16 133 -149 149 -149 7 0 36 22 65 50 36
34 58 48 72 44 28 -7 414 381 414 417 0 17 22 46 75 99 71 70 75 73 93 57 10
-9 23 -17 28 -17 5 0 62 53 127 118 115 115 118 119 107 147 -11 28 -8 32 77
117 l88 88 62 -62 c57 -57 63 -65 57 -94 -7 -38 2 -56 62 -130 33 -41 43 -59
35 -67 -17 -17 -13 -47 6 -47 9 0 30 12 45 27 l28 27 79 -78 c59 -58 77 -83
73 -98 -4 -15 52 -76 253 -277 l257 -258 61 -6 62 -6 53 52 54 52 -6 65 -6 65
-247 248 c-169 169 -257 250 -275 254 -16 3 -28 7 -28 9 0 2 14 25 30 51 17
26 30 54 30 63 0 9 -22 37 -49 64 l-49 48 -31 -16 c-31 -16 -31 -16 -31 9 0
29 -29 35 -50 10 -10 -12 -22 -6 -83 41 -63 49 -76 55 -109 52 -35 -3 -43 1
-100 59 l-62 63 530 533 c498 498 532 535 543 579 13 53 5 82 -31 115 -29 28
-72 35 -118 21z m82 -65 c22 -19 23 -45 4 -81 -8 -15 -248 -260 -533 -545
l-518 -517 -48 48 -47 47 523 522 c287 286 531 526 542 532 29 15 56 13 77 -6z
m-1597 -673 c568 -568 668 -673 659 -687 -6 -9 -15 -18 -20 -20 -5 -2 -312
300 -683 671 -669 669 -703 706 -644 706 10 0 302 -284 688 -670z m378 -548
l47 -48 -79 -78 -78 -78 -28 67 -28 66 58 59 c33 33 60 60 60 60 0 0 22 -22
48 -48z m-417 -74 c24 -17 44 -32 44 -33 0 0 -17 -18 -39 -39 l-38 -37 -32 42
c-35 49 -38 61 -15 83 21 22 30 20 80 -16z m279 -209 c6 -18 -9 -38 -81 -110
l-89 -89 -87 87 -88 88 122 122 123 123 47 -100 c26 -55 50 -109 53 -121z
m608 88 l37 -32 -76 -75 -75 -75 -44 50 c-25 28 -45 59 -45 71 0 13 22 42 55
73 55 52 55 52 82 36 16 -9 45 -31 66 -48z m226 -81 l23 -24 -24 -36 -24 -35
-38 38 -37 38 33 21 c41 27 40 27 67 -2z m-104 -106 l70 -70 -43 -42 -42 -43
-72 72 -72 73 39 40 c21 22 42 40 45 40 3 0 37 -32 75 -70z m-1030 -60 l39
-40 -64 -65 c-35 -36 -69 -65 -74 -65 -13 0 -76 61 -76 74 0 11 120 136 130
136 3 0 24 -18 45 -40z m1213 -63 l32 -33 -31 -94 c-18 -52 -35 -98 -38 -102
-4 -4 -38 24 -76 62 l-69 70 64 65 c35 36 69 65 75 65 6 0 25 -15 43 -33z
m-1505 -359 l-178 -178 -67 67 -68 68 177 177 178 178 67 -67 68 -68 -177
-177z m1630 234 l37 -38 -31 -94 c-18 -52 -35 -98 -38 -102 -4 -5 -25 10 -46
32 l-39 40 34 100 c19 55 37 100 40 100 3 0 23 -17 43 -38z m130 -130 l37 -38
-31 -94 c-18 -52 -35 -98 -38 -102 -4 -5 -25 10 -46 32 l-39 40 34 100 c19 55
37 100 40 100 3 0 23 -17 43 -38z m139 -139 c41 -41 48 -53 48 -87 0 -83 -105
-141 -155 -86 -18 20 -18 23 16 120 19 55 36 100 39 100 2 0 26 -21 52 -47z
m-2185 -115 c18 -18 33 -37 33 -43 0 -6 -16 -26 -35 -45 l-35 -34 -42 42 -42
42 34 35 c19 19 38 35 44 35 6 0 25 -14 43 -32z"/>
</g>
</svg>
