<?xml version="1.0" standalone="no"?>
<!DOCTYPE svg PUBLIC "-//W3C//DTD SVG 20010904//EN"
 "http://www.w3.org/TR/2001/REC-SVG-20010904/DTD/svg10.dtd">
<svg version="1.0" xmlns="http://www.w3.org/2000/svg"
 width="583.000000pt" height="698.000000pt" viewBox="0 0 583.000000 698.000000"
 preserveAspectRatio="xMidYMid meet">

<g transform="translate(0.000000,698.000000) scale(0.100000,-0.100000)"
fill="#000000" stroke="none">
<path d="M1561 6909 c-40 -24 -66 -54 -101 -118 -23 -40 -30 -46 -87 -61 -239
-65 -412 -240 -506 -511 -25 -72 -37 -94 -52 -97 -54 -8 -67 -15 -85 -45 -19
-30 -20 -52 -20 -368 0 -325 1 -337 21 -363 11 -14 35 -29 52 -34 30 -8 32
-12 40 -68 22 -167 60 -360 77 -394 31 -61 109 -111 225 -145 33 -10 67 -20
75 -22 13 -4 12 -6 -2 -14 -22 -12 -41 -70 -33 -101 6 -23 3 -25 -58 -36 -35
-7 -90 -21 -123 -32 -38 -14 -82 -21 -124 -20 -127 1 -229 -39 -321 -129 -58
-56 -73 -92 -50 -117 6 -5 -46 -89 -136 -219 -107 -155 -156 -217 -185 -235
-46 -29 -86 -79 -104 -129 -20 -56 -17 -149 7 -201 12 -25 30 -81 40 -124 33
-136 138 -329 276 -509 37 -48 43 -62 38 -86 -8 -37 28 -124 62 -150 13 -11
32 -43 42 -73 34 -94 50 -125 90 -172 22 -25 63 -79 91 -120 28 -41 62 -82 75
-90 31 -20 84 -20 113 0 21 14 23 14 32 -11 6 -14 10 -30 10 -34 0 -5 9 -20
21 -35 20 -25 21 -36 16 -164 -2 -75 -10 -182 -17 -237 -14 -117 -3 -286 33
-480 20 -109 21 -128 10 -215 -7 -52 -14 -142 -16 -200 l-4 -106 -51 -84
c-165 -271 -130 -403 119 -456 56 -12 111 -15 229 -11 169 5 229 18 285 62 79
59 82 111 21 331 -40 144 -45 173 -50 304 -3 80 -10 171 -15 202 -8 45 -6 76
9 150 33 166 42 260 39 418 -7 384 -4 461 20 540 12 41 27 121 33 178 11 96
13 102 35 102 20 0 23 -5 23 -39 0 -57 37 -262 55 -308 20 -51 24 -235 7 -377
-16 -131 -4 -303 32 -491 23 -115 23 -125 10 -235 -7 -63 -13 -155 -13 -205 1
-78 -5 -110 -42 -235 -31 -108 -42 -164 -43 -219 l-1 -73 42 -37 c64 -57 123
-72 302 -78 98 -4 178 -1 220 6 82 15 178 66 209 112 48 69 13 210 -93 375
-36 56 -38 64 -40 149 -2 50 -8 142 -15 205 -12 106 -11 125 9 235 33 190 43
346 30 466 -6 57 -13 162 -16 233 -5 126 -4 129 23 186 28 54 31 57 61 52 58
-8 77 4 155 105 42 54 86 107 98 118 25 22 70 109 90 170 7 22 27 52 46 68 38
32 69 104 61 143 -4 22 6 41 49 96 78 98 179 248 218 326 35 70 76 190 76 224
0 11 14 49 31 84 28 56 31 71 27 132 -4 86 -39 147 -116 207 -75 58 -332 427
-332 478 0 28 -9 43 -55 86 -81 77 -169 115 -275 119 -58 2 -104 11 -145 27
-33 12 -94 31 -136 40 l-76 18 5 43 c3 30 0 51 -12 69 -15 22 -15 25 -1 25 32
0 140 42 181 71 24 16 55 49 68 72 25 42 61 203 88 391 12 85 14 89 43 102 17
7 39 22 50 34 19 21 20 39 23 354 3 387 2 390 -80 415 -38 11 -47 19 -52 42
-12 62 -70 193 -118 265 -95 147 -216 240 -381 291 -64 21 -89 33 -93 48 -14
46 -69 117 -109 140 -55 33 -135 34 -184 4z m161 -97 c15 -15 38 -54 51 -86
l23 -60 74 -18 c149 -36 285 -126 370 -244 27 -38 16 -30 -55 42 -73 74 -106
99 -175 133 -47 23 -124 51 -172 63 -87 21 -88 22 -88 52 0 39 -32 93 -64 107
-53 25 -113 -24 -123 -99 -5 -39 -7 -41 -47 -47 -117 -18 -249 -67 -341 -127
l-30 -20 30 27 c43 38 180 101 250 116 75 15 95 25 95 47 1 36 55 117 90 135
43 21 75 15 112 -21z m-30 -59 c40 -36 12 -143 -37 -143 -28 0 -55 38 -55 78
0 69 49 104 92 65z m-100 -143 c37 -42 89 -42 129 1 27 29 33 31 75 25 116
-15 255 -83 351 -170 44 -40 118 -131 146 -182 3 -6 -31 26 -76 71 -60 59
-104 92 -163 123 -147 76 -349 106 -540 82 -201 -25 -326 -82 -451 -206 l-82
-82 29 58 c61 120 237 245 410 290 110 28 140 26 172 -10z m313 -130 c186 -59
312 -163 389 -322 69 -142 69 -153 5 -92 -123 115 -235 167 -361 168 -68 0
-85 -4 -150 -37 -40 -20 -90 -54 -111 -75 l-39 -40 -61 47 c-183 138 -371 131
-574 -20 -29 -22 -53 -37 -53 -34 0 3 13 33 29 68 83 181 242 304 456 351 108
24 377 16 470 -14z m-925 -543 c-24 -47 -40 -92 -40 -112 0 -25 -6 -37 -21
-45 -11 -7 -22 -10 -24 -8 -5 5 13 144 27 206 9 41 20 61 52 90 l41 37 3 -45
c2 -36 -5 -60 -38 -123z m416 104 c123 -55 194 -202 159 -334 -29 -113 -101
-184 -216 -213 -57 -15 -68 -15 -126 0 -161 39 -256 184 -223 340 37 180 236
282 406 207z m744 -2 c183 -80 229 -329 88 -471 -86 -86 -221 -108 -330 -55
-105 51 -162 144 -163 262 -1 212 210 349 405 264z m236 -126 c17 -90 18 -166
2 -161 -7 3 -16 29 -19 59 -7 62 -29 119 -64 165 -15 20 -25 46 -25 66 l0 33
46 -47 c41 -40 48 -54 60 -115z m-1502 105 c-3 -12 -12 -55 -19 -97 l-13 -76
-1 98 c-1 92 0 97 20 97 16 0 19 -4 13 -22z m1574 -95 c0 -65 -3 -102 -5 -83
-2 19 -10 68 -18 109 -19 92 -19 91 5 91 19 0 20 -6 18 -117z m42 -209 c0
-203 -4 -314 -10 -314 -6 0 -10 114 -10 321 0 211 3 318 10 314 6 -4 10 -122
10 -321z m-1670 -5 c0 -211 -3 -318 -10 -314 -6 4 -10 122 -10 321 0 203 4
314 10 314 6 0 10 -114 10 -321z m124 -1 c4 -24 21 -68 37 -98 17 -30 82 -165
143 -300 l111 -245 53 -3 c41 -2 52 -7 52 -20 0 -9 7 -82 15 -162 8 -80 15
-155 15 -168 l0 -23 -41 23 c-60 33 -173 141 -225 213 -127 179 -214 476 -214
736 0 80 3 89 31 89 12 0 18 -11 23 -42z m1445 13 c24 -15 0 -263 -41 -426
-40 -162 -124 -327 -222 -441 -47 -54 -158 -144 -178 -144 -9 0 -3 267 8 318
4 19 11 22 47 22 l43 0 107 240 c58 131 122 260 141 285 19 25 43 70 52 100
19 58 21 60 43 46z m56 -319 c-12 -12 -14 8 -7 74 l7 69 3 -69 c2 -37 0 -71
-3 -74z m-1256 -31 c19 -18 47 -38 61 -43 22 -7 33 -26 64 -106 20 -53 36
-107 36 -119 0 -21 -5 -23 -48 -23 l-48 0 -61 138 c-34 75 -78 173 -97 217
l-36 80 47 -55 c27 -30 63 -70 82 -89z m-335 72 c4 -34 3 -53 -4 -53 -6 0 -10
24 -10 57 0 68 5 66 14 -4z m1342 5 c-7 -18 -48 -111 -91 -206 l-78 -173 -41
3 c-54 4 -56 22 -14 139 28 77 39 95 68 114 19 13 64 53 100 89 35 36 66 66
67 66 2 0 -3 -15 -11 -32z m-1216 -458 c3 -79 44 -140 116 -171 53 -24 59 -36
7 -14 -111 46 -130 72 -154 206 -10 57 -19 109 -18 114 0 26 48 -104 49 -135z
m1355 15 c-13 -67 -32 -130 -43 -144 -21 -29 -84 -67 -133 -81 -26 -8 -29 -7
-19 5 7 8 19 15 27 15 30 0 92 41 113 75 12 19 26 66 32 103 10 66 37 157 44
150 2 -2 -7 -58 -21 -123z m-597 78 c-26 -2 -71 -2 -100 0 -29 2 -8 3 47 3 55
0 79 -1 53 -3z m527 -172 c-16 -32 -53 -71 -67 -71 -4 0 11 29 34 64 42 63 65
68 33 7z m-1224 12 c13 -21 28 -45 33 -53 5 -8 -3 -4 -17 9 -22 20 -54 81 -42
81 1 0 14 -17 26 -37z m434 -331 c16 -9 -2 -11 -97 -12 -108 0 -138 6 -120 25
11 11 194 1 217 -13z m579 9 c10 -16 -24 -21 -142 -20 -108 1 -115 2 -87 14
34 16 220 21 229 6z m-4 -141 c0 -6 -140 -10 -400 -10 -260 0 -400 4 -400 10
0 7 140 10 400 10 260 0 400 -3 400 -10z m-848 -30 l17 -30 179 0 179 0 6 -67
c4 -38 7 -91 7 -119 l0 -51 -147 -6 c-153 -6 -324 -32 -434 -67 -35 -11 -69
-20 -75 -20 -6 0 -25 18 -42 40 l-32 39 16 77 c26 126 38 149 94 173 38 16
175 56 210 60 3 1 13 -13 22 -29z m1017 0 c47 -12 98 -28 114 -36 36 -19 60
-74 80 -183 l15 -83 -27 -29 -26 -28 -110 29 c-151 39 -301 60 -434 60 l-112
0 3 118 3 117 169 3 c140 2 173 5 188 19 10 9 18 22 18 30 0 9 7 12 18 9 9 -3
55 -15 101 -26z m-528 -161 l-3 -126 148 -6 c161 -6 330 -32 463 -71 l85 -24
19 25 c28 35 34 19 43 -114 l7 -111 -66 -21 c-72 -22 -248 -57 -311 -63 -38
-3 -39 -2 -58 48 -42 109 -148 209 -256 240 -82 24 -212 16 -284 -18 -101 -47
-184 -145 -222 -260 -4 -13 -13 -16 -33 -13 -15 3 -72 12 -127 21 -89 14 -251
55 -262 67 -5 5 16 250 22 256 3 3 19 -9 37 -27 l32 -31 82 24 c124 36 311 65
466 72 l137 6 0 129 0 129 43 -3 42 -3 -4 -126z m-873 110 c-32 -4 -72 -16
-90 -25 -37 -18 -78 -53 -78 -65 0 -5 34 -31 76 -59 77 -52 94 -74 77 -91 -7
-7 -46 14 -116 62 -117 80 -117 78 -43 129 56 38 121 59 181 58 l50 0 -57 -9z
m1786 -33 c51 -24 125 -80 116 -88 -35 -30 -230 -155 -234 -151 -21 21 1 47
85 104 l91 61 -24 25 c-32 35 -68 52 -146 68 l-67 14 64 -4 c38 -3 85 -15 115
-29z m-1758 -8 c-4 -13 -12 -48 -18 -78 -7 -30 -13 -57 -15 -59 -3 -5 -143 87
-143 93 0 8 70 48 98 56 15 5 40 9 56 9 25 1 28 -2 22 -21z m1734 -22 c25 -12
45 -27 45 -34 0 -17 -145 -114 -150 -99 -2 6 -9 37 -15 67 -6 30 -13 65 -17
78 -5 23 -4 23 43 17 27 -4 69 -17 94 -29z m-1860 -213 c0 -21 -101 -103 -142
-113 -38 -11 -100 0 -112 19 -3 4 24 49 60 99 l65 92 64 -43 c36 -23 65 -47
65 -54z m2079 -9 c72 -106 72 -114 -9 -114 -53 0 -133 41 -174 91 l-27 32 63
43 c35 23 68 43 73 43 6 0 39 -43 74 -95z m-2011 -37 c-2 -7 -34 -58 -73 -114
-59 -85 -73 -100 -87 -92 -12 6 -25 6 -38 -1 -16 -9 -20 -21 -20 -63 0 -40 -6
-61 -26 -91 -24 -35 -28 -37 -37 -20 -28 53 -92 97 -162 112 l-36 7 62 90 c34
50 63 91 64 93 2 2 17 -4 34 -12 72 -38 182 -2 253 83 27 32 36 37 51 29 10
-5 17 -15 15 -21z m1819 -22 c79 -80 163 -109 239 -82 l41 14 59 -86 c33 -47
61 -89 62 -93 2 -5 -10 -8 -27 -8 -59 0 -138 -49 -168 -105 -11 -19 -12 -19
-32 5 -13 17 -20 40 -21 68 0 61 -14 82 -53 82 -29 1 -38 10 -110 115 -69 102
-75 115 -60 124 10 6 19 11 21 11 2 0 24 -20 49 -45z m-825 -53 c25 -11 65
-38 89 -59 157 -142 157 -374 -1 -517 -69 -62 -121 -81 -225 -81 -78 0 -97 4
-147 28 -72 35 -134 97 -167 167 -36 75 -37 210 -4 283 41 89 114 156 207 189
66 24 182 19 248 -10z m806 -179 l39 -58 -7 -205 -7 -205 -42 -115 c-23 -63
-53 -155 -65 -204 -17 -64 -30 -94 -49 -110 -13 -11 -30 -30 -35 -41 -10 -18
-12 -17 -26 17 -9 21 -30 53 -46 72 -28 32 -31 41 -37 133 -3 54 -12 113 -19
132 -9 20 -14 71 -14 129 l0 95 48 51 c60 63 95 124 117 198 14 49 21 59 53
75 32 15 37 23 40 56 2 20 5 37 7 37 2 0 22 -26 43 -57z m-1774 -105 c22 -75
89 -172 153 -222 l53 -41 0 -88 c0 -72 -3 -91 -19 -108 -25 -27 -31 -62 -31
-175 0 -57 -4 -95 -11 -100 -6 -3 -24 -33 -39 -66 -23 -49 -29 -56 -35 -39 -3
11 -20 35 -37 52 -26 26 -37 52 -63 157 -18 70 -46 167 -64 217 -30 88 -31 92
-31 277 0 177 1 190 22 222 l22 33 32 -32 c19 -20 38 -53 48 -87z m-207 -145
c-1 -49 -3 -9 -3 87 0 96 2 136 3 88 2 -49 2 -127 0 -175z m2110 155 c-2 -18
-4 -6 -4 27 0 33 2 48 4 33 2 -15 2 -42 0 -60z m-1725 33 c46 -11 119 -25 164
-31 l80 -12 11 -75 c6 -44 23 -99 40 -134 16 -32 26 -59 22 -59 -33 0 -126 28
-186 55 -93 43 -167 112 -204 190 -30 63 -35 85 -20 85 5 0 47 -9 93 -19z
m1363 -37 c-40 -135 -156 -232 -332 -278 -32 -9 -59 -14 -61 -12 -2 3 8 22 23
44 34 52 55 122 55 187 l0 52 108 17 c59 9 132 22 162 30 30 7 56 12 57 11 2
-1 -4 -24 -12 -51z m-1970 13 c27 -13 64 -48 77 -70 9 -17 7 -17 -13 -6 -13 6
-32 21 -43 31 -95 90 -255 14 -257 -123 0 -38 -2 -41 -11 -22 -22 45 15 132
73 176 47 34 121 41 174 14z m2706 -10 c58 -31 89 -84 89 -154 0 -28 -5 -55
-11 -58 -7 -5 -9 6 -4 36 14 99 -80 190 -177 174 -33 -6 -54 -19 -92 -57 -52
-53 -66 -57 -43 -11 44 84 151 116 238 70z m-2725 -32 c20 -15 22 -15 -101
-20 -38 -1 -55 -12 -55 -34 0 -10 -9 -26 -20 -36 -24 -22 -25 -16 -6 30 8 19
30 44 48 55 39 24 106 26 134 5z m2720 -10 c31 -20 52 -53 60 -93 9 -46 -11
-41 -32 8 -10 22 -20 40 -23 40 -3 1 -28 3 -56 7 -27 3 -67 6 -87 6 -50 1 -48
13 5 38 47 22 94 20 133 -6z m-379 -172 c-2 -32 -3 -6 -3 57 0 63 1 89 3 58 2
-32 2 -84 0 -115z m-2302 -203 c193 -410 218 -467 207 -455 -11 11 -362 759
-362 771 0 14 9 -3 155 -316z m14 305 c79 -40 168 -187 230 -375 31 -98 81
-293 81 -321 0 -17 -72 -56 -78 -42 -2 4 -81 172 -176 373 -111 235 -169 368
-162 372 18 13 75 9 105 -7z m2586 -24 c3 -5 -78 -174 -181 -375 l-186 -366
-38 21 -38 21 14 62 c46 200 152 461 224 551 48 60 105 95 156 95 24 0 45 -4
49 -9z m-127 -375 c-106 -212 -194 -383 -196 -382 -4 5 376 766 383 766 3 0
-82 -173 -187 -384z m-2474 -16 c91 -195 166 -360 166 -367 0 -6 -10 -15 -22
-19 -28 -9 -61 28 -169 189 -129 192 -189 333 -189 442 0 57 26 134 40 118 4
-4 82 -168 174 -363z m2701 310 c39 -75 7 -221 -81 -374 -70 -122 -243 -357
-262 -356 -4 0 -15 7 -25 14 -17 13 -7 37 165 380 101 201 184 366 185 366 1
0 9 -13 18 -30z m-1947 -334 c49 -68 154 -167 218 -206 203 -122 430 -105 618
47 52 42 129 131 162 189 9 16 14 17 37 7 26 -12 27 -16 27 -92 l0 -79 -37
-13 c-67 -21 -149 -67 -229 -127 -90 -68 -240 -220 -254 -258 -6 -14 -10 -56
-10 -93 l0 -67 -35 4 -35 4 0 82 0 81 -53 70 c-117 154 -316 297 -452 325
l-55 11 0 69 c0 55 4 71 18 79 31 19 48 12 80 -33z m920 -32 c-18 -26 -59 -69
-91 -96 -105 -87 -212 -128 -337 -128 -143 0 -246 47 -378 174 -45 43 -80 81
-78 83 2 2 26 -11 53 -31 243 -174 520 -178 768 -11 44 29 84 54 88 54 5 1 -7
-20 -25 -45z m-898 -145 c74 -26 173 -95 268 -187 103 -100 142 -155 142 -200
l0 -35 -22 42 c-26 48 -186 213 -268 276 -70 54 -147 93 -199 101 -26 4 -41
12 -41 21 0 17 32 12 120 -18z m1040 1 c0 -5 -12 -13 -27 -16 -46 -11 -124
-54 -185 -101 -77 -59 -224 -208 -259 -262 -26 -40 -29 -42 -29 -19 0 35 42
90 146 186 100 94 200 165 283 198 63 27 71 28 71 14z m-1040 -91 c133 -71
160 -130 160 -348 0 -81 -3 -223 -7 -316 l-6 -168 -108 5 c-59 3 -112 9 -118
12 -7 4 -11 41 -11 93 0 77 2 84 18 78 43 -19 61 -17 86 8 43 43 35 69 -63
202 -49 66 -88 121 -86 123 2 2 17 -3 33 -12 16 -8 48 -18 70 -22 68 -11 100
42 58 95 -6 8 -42 35 -81 59 -38 25 -82 55 -97 68 -15 12 -32 24 -39 26 -15 5
8 80 33 108 28 30 88 26 158 -11z m1106 4 c19 -19 44 -75 44 -98 0 -8 -9 -15
-19 -15 -11 0 -32 -10 -48 -23 -15 -13 -53 -37 -83 -55 -64 -36 -120 -87 -120
-110 0 -51 72 -67 148 -32 50 23 53 27 -60 -118 -95 -122 -106 -154 -68 -192
31 -31 76 -26 111 11 33 35 38 26 12 -20 -17 -30 -17 -32 0 -62 9 -17 17 -50
17 -73 l0 -43 -61 -7 c-34 -3 -88 -6 -119 -6 l-57 0 -6 182 c-4 99 -7 241 -7
314 0 201 27 258 157 331 67 38 131 44 159 16z m-1482 -58 c31 -47 23 -56
-113 -127 -71 -38 -136 -68 -143 -68 -20 0 -52 70 -39 83 17 17 245 135 262
136 9 1 24 -10 33 -24z m1844 -56 c70 -38 131 -74 136 -79 12 -12 -24 -80 -42
-80 -23 0 -272 141 -272 154 0 14 37 76 46 76 3 0 63 -32 132 -71z m-1123
-214 c7 -16 16 -56 20 -87 l7 -58 -90 0 -90 0 -4 153 c-2 83 -8 161 -12 172
-12 31 154 -146 169 -180z m-520 160 c26 -25 31 -50 15 -75 -8 -13 -10 -13
-10 1 0 9 -18 33 -40 53 -22 20 -40 38 -40 41 0 15 55 1 75 -20z m946 -16 c-6
-18 -11 -92 -11 -165 l0 -134 -91 0 -90 0 6 58 c4 31 13 71 20 87 14 32 164
199 172 191 3 -3 0 -19 -6 -37z m-1038 -14 l57 -45 0 -65 c0 -80 -16 -120 -63
-162 -55 -48 -154 -56 -228 -18 -29 15 -77 119 -81 177 -3 30 0 33 117 94 66
35 125 64 130 64 6 0 36 -20 68 -45z m1447 38 c0 -3 -18 -21 -40 -40 -22 -19
-40 -42 -40 -51 0 -15 -2 -15 -10 -2 -16 25 -11 50 15 75 21 22 75 35 75 18z
m215 -74 c143 -81 138 -68 82 -193 -26 -57 -37 -71 -66 -83 -43 -18 -140 -20
-172 -3 -74 38 -117 129 -104 216 6 41 13 50 67 90 33 24 62 44 64 44 2 0 60
-32 129 -71z m-1418 -39 l28 -25 -24 -3 c-34 -5 -103 28 -96 46 3 7 5 20 5 28
0 13 5 12 30 -2 16 -10 42 -30 57 -44z m1066 24 c4 -23 -1 -28 -37 -45 -44
-20 -76 -24 -76 -11 0 14 82 80 101 81 4 1 9 -11 12 -25z m-1119 -228 c49 -67
74 -110 70 -120 -13 -35 -43 -15 -109 73 -61 82 -66 93 -59 125 3 20 10 34 14
31 5 -3 42 -52 84 -109z m1119 -46 c-73 -95 -88 -107 -110 -89 -19 17 -14 26
74 141 l78 100 13 -31 c12 -31 11 -34 -55 -121z m-1165 -80 c-4 -13 -88 103
-88 121 0 7 21 -15 46 -49 25 -34 44 -67 42 -72z m1262 113 c0 -5 -16 -28 -35
-52 -41 -52 -47 -36 -7 20 25 36 42 49 42 32z m-780 -38 c0 -25 -1 -25 -85
-25 -84 0 -85 0 -85 25 0 25 1 25 85 25 84 0 85 0 85 -25z m-556 -62 c31 -43
56 -83 56 -90 0 -12 -4 -14 -29 -17 -10 -1 -121 142 -121 155 0 6 27 27 37 29
1 0 27 -35 57 -77z m956 52 c0 -25 -1 -25 -85 -25 -84 0 -85 0 -85 25 0 25 1
25 85 25 84 0 85 0 85 -25z m450 -17 c0 -4 -27 -41 -60 -82 -41 -52 -65 -74
-75 -70 -26 10 -17 33 42 109 49 64 58 72 75 62 10 -7 18 -15 18 -19z m-1575
-58 c42 -54 53 -90 28 -90 -8 0 -113 135 -113 145 0 3 9 5 19 5 12 0 38 -23
66 -60z m1709 3 c-63 -84 -80 -103 -91 -103 -24 0 -13 30 30 85 30 39 49 55
66 55 l23 0 -28 -37z m-992 -13 c-1 -19 -10 -70 -19 -113 -18 -88 -28 -97
-109 -97 l-44 0 0 118 c0 65 3 122 7 126 4 4 43 5 88 4 l80 -3 -3 -35z m416
-97 l3 -123 -43 1 c-69 2 -91 11 -100 44 -14 52 -35 194 -30 200 4 3 42 4 87
3 l80 -3 3 -122z m-878 -53 c0 -50 -25 -55 -45 -7 -12 28 -12 33 3 39 35 14
42 9 42 -32z m1216 -14 c-16 -39 -30 -46 -40 -20 -13 35 -6 53 22 56 15 2 28
3 30 2 2 -1 -4 -18 -12 -38z m-1160 -94 c20 -6 19 -9 -17 -34 l-39 -28 0 35
c0 37 9 41 56 27z m344 -32 c0 -37 -6 -37 -50 0 l-34 30 42 0 c40 0 42 -1 42
-30z m770 -6 l0 -36 -31 26 c-17 14 -36 26 -42 27 -15 1 32 17 56 18 13 1 17
-7 17 -35z m-350 -4 c-44 -37 -50 -37 -50 0 0 29 2 30 42 30 l42 0 -34 -30z
m-623 -187 c-4 -104 -7 -338 -7 -520 0 -322 -1 -333 -19 -333 -23 0 -122 88
-150 134 -36 58 -65 265 -65 471 -1 162 1 187 22 251 37 113 110 183 191 184
l34 0 -6 -187z m125 152 c48 -32 93 -125 109 -228 23 -148 -14 -544 -58 -632
-30 -59 -92 -132 -122 -145 -18 -7 -33 -11 -34 -9 -2 4 9 1008 12 1038 1 18
45 7 93 -24z m622 -77 c3 -57 7 -291 9 -521 2 -483 9 -461 -97 -354 -61 61
-63 64 -79 147 -50 255 -59 513 -23 639 22 81 64 141 115 168 24 13 50 23 57
23 8 0 14 -31 18 -102z m119 88 c50 -21 105 -91 128 -166 27 -83 36 -277 20
-421 -17 -146 -41 -279 -58 -312 -35 -70 -141 -154 -163 -130 -4 4 -10 241
-12 526 l-5 517 29 0 c16 0 43 -6 61 -14z m-928 -1037 c37 -20 45 -29 45 -52
0 -17 -6 -30 -17 -33 -58 -19 -80 -32 -129 -78 l-54 -52 0 48 c0 51 18 245 25
266 3 7 21 -5 45 -32 22 -24 60 -54 85 -67z m264 -40 c18 -188 21 -181 -47
-117 -36 33 -75 59 -101 66 -37 12 -42 16 -39 39 2 19 11 29 30 34 36 9 76 42
107 85 17 24 27 31 32 22 4 -7 12 -65 18 -129z m524 20 c30 -11 37 -18 37 -41
0 -23 -6 -29 -40 -38 -25 -7 -62 -31 -100 -66 -53 -50 -60 -54 -60 -33 0 37
21 253 26 268 3 9 19 -1 52 -31 27 -25 65 -51 85 -59z m251 54 c4 -27 9 -96
13 -155 l6 -107 -55 53 c-31 30 -75 61 -101 71 -40 15 -47 22 -47 45 0 24 5
29 35 34 24 5 51 23 83 55 26 26 50 49 53 49 4 1 9 -19 13 -45z m-915 -187
c33 -18 108 -98 120 -129 25 -67 23 -71 -17 -20 -42 52 -104 95 -153 107 -36
8 -112 -16 -156 -49 -44 -34 -32 -6 19 42 64 62 129 79 187 49z m775 -11 c18
-9 57 -41 87 -71 l54 -56 -55 35 c-30 20 -77 41 -103 48 -45 11 -51 10 -104
-17 -37 -19 -72 -48 -101 -83 -43 -53 -46 -51 -21 16 11 30 77 102 114 125 37
22 86 23 129 3z m-791 -68 c41 -18 124 -108 160 -175 16 -29 36 -81 46 -116
l18 -64 -66 -31 c-89 -40 -173 -55 -279 -48 -87 5 -192 35 -247 71 l-25 16 21
53 c36 93 97 185 152 229 93 74 155 92 220 65z m825 -21 c87 -45 145 -107 195
-208 61 -122 61 -127 11 -155 -102 -57 -282 -78 -399 -48 -80 21 -165 61 -165
77 1 68 62 196 130 271 82 92 140 108 228 63z m-1157 -391 c162 -73 369 -72
519 5 48 24 54 23 41 -12 -11 -29 -57 -53 -131 -69 -77 -16 -342 -7 -400 15
-48 18 -90 52 -90 73 0 17 -1 17 61 -12z m963 -50 c140 -33 255 -17 434 62 24
10 12 -26 -18 -50 -43 -37 -147 -57 -288 -57 -179 0 -277 24 -300 74 -6 13 -8
26 -6 29 3 3 30 -6 61 -19 30 -14 83 -31 117 -39z"/>
<path d="M1631 6726 c-7 -8 -11 -30 -9 -48 2 -28 7 -34 30 -36 39 -5 58 36 34
73 -19 28 -38 32 -55 11z"/>
<path d="M1164 6016 c-132 -61 -192 -233 -126 -362 25 -49 91 -110 141 -131
46 -20 156 -20 202 0 50 21 116 82 141 131 29 56 34 141 14 203 -37 111 -137
183 -256 183 -47 0 -79 -7 -116 -24z m126 -56 l0 -60 -30 0 -30 0 0 60 0 60
30 0 30 0 0 -60z m58 54 c20 -6 22 -12 22 -70 l0 -63 -30 10 c-26 10 -30 16
-30 47 0 21 -3 47 -6 60 -7 23 2 27 44 16z m-138 -62 c0 -53 -3 -60 -30 -80
l-30 -23 0 69 c0 62 2 70 23 80 35 17 37 15 37 -46z m240 -74 l0 -81 -35 39
c-35 40 -42 69 -29 133 l6 31 29 -21 c28 -20 29 -24 29 -101z m-334 -88 c-8
-19 -18 -44 -23 -55 -5 -13 -9 17 -11 84 -3 97 -1 106 20 128 l23 25 3 -73 c2
-48 -2 -86 -12 -109z m386 98 c17 -33 22 -60 22 -113 0 -53 -5 -80 -22 -112
-12 -24 -24 -43 -26 -43 -2 0 -3 21 -2 48 1 26 -3 95 -7 155 -9 119 -1 133 35
65z m-432 -120 c-1 -121 -1 -122 -18 -93 -28 50 -18 215 13 215 3 0 5 -55 5
-122z m220 -81 c0 -85 -3 -156 -6 -159 -3 -3 -17 -3 -32 1 l-27 8 4 144 c2 79
5 147 8 152 2 4 15 7 29 7 l24 0 0 -153z m63 125 c14 -13 17 -34 17 -142 0
-107 -3 -129 -16 -134 -43 -17 -44 -14 -44 150 0 163 0 162 43 126z m-148
-270 c-3 -3 -16 0 -30 6 -23 11 -25 17 -25 79 0 76 11 123 37 162 18 26 18 24
21 -108 1 -73 0 -136 -3 -139z m205 162 c6 -30 18 -58 26 -61 24 -9 16 -50
-15 -72 -16 -12 -32 -21 -35 -21 -3 0 -6 47 -6 105 0 58 4 105 9 105 5 0 15
-25 21 -56z m-270 -95 c0 -33 -6 -36 -32 -12 -28 25 -24 51 7 45 20 -3 25 -10
25 -33z"/>
<path d="M1915 6016 c-56 -26 -119 -90 -142 -145 -9 -20 -15 -64 -15 -98 -1
-147 123 -273 267 -273 144 0 268 126 267 273 0 75 -17 121 -69 177 -52 58
-122 90 -198 90 -42 0 -75 -7 -110 -24z m115 -56 c0 -45 -4 -60 -14 -60 -8 0
-21 -3 -30 -6 -14 -5 -16 3 -16 53 0 67 3 73 37 73 22 0 23 -4 23 -60z m58 54
c20 -6 22 -12 22 -69 l0 -63 -30 11 c-29 11 -30 14 -30 69 0 60 1 62 38 52z
m-128 -68 c0 -46 -4 -56 -30 -79 l-30 -27 -2 55 c-1 30 -2 63 -2 72 -1 18 42
46 56 37 4 -3 8 -29 8 -58z m208 28 c19 -13 22 -24 22 -90 l0 -75 -30 34 c-26
30 -30 43 -30 91 0 60 4 64 38 40z m-291 -113 c-2 -31 -14 -81 -25 -111 l-21
-55 -1 114 c0 105 2 117 23 139 l22 24 3 -28 c2 -15 2 -52 -1 -83z m374 15
c27 -60 25 -148 -6 -213 -13 -29 -25 -53 -27 -53 -2 0 -4 72 -6 161 -3 172 2
187 39 105z m-442 -108 c0 -114 -1 -121 -14 -88 -17 43 -19 136 -4 179 6 17
13 31 15 31 2 0 4 -55 3 -122z m225 -20 c9 -130 8 -216 -4 -223 -5 -3 -21 -3
-35 1 l-25 6 0 144 c0 141 1 145 23 154 12 5 25 9 28 9 3 1 9 -40 13 -91z m66
67 c7 -8 10 -63 8 -146 l-3 -134 -27 -3 -28 -3 0 154 c0 149 1 155 20 150 10
-3 24 -11 30 -18z m-154 -272 c-2 -3 -14 -2 -25 2 -19 6 -21 14 -21 88 0 63 5
90 23 126 l22 46 3 -129 c1 -71 1 -131 -2 -133z m214 140 c0 -22 7 -36 20 -43
29 -15 25 -45 -9 -69 -16 -12 -32 -21 -35 -21 -3 0 -6 51 -5 113 1 103 2 110
14 82 8 -16 14 -44 15 -62z m-280 -81 l0 -35 -25 23 c-14 13 -25 31 -25 40 0
13 6 16 25 12 21 -4 25 -10 25 -40z"/>
<path d="M1554 3950 c-54 -17 -128 -73 -161 -123 -43 -64 -56 -117 -51 -197 8
-110 68 -199 166 -247 77 -38 193 -40 264 -5 179 89 232 314 110 469 -57 71
-127 106 -222 109 -41 2 -89 -1 -106 -6z m213 -56 c89 -43 143 -130 143 -230
0 -89 -18 -132 -80 -194 -62 -62 -105 -80 -194 -80 -127 0 -227 84 -256 214
-21 97 27 217 110 272 87 58 181 64 277 18z"/>
<path d="M1578 3896 c-48 -13 -62 -21 -111 -65 -90 -81 -100 -235 -22 -337 84
-110 270 -124 369 -28 74 72 100 162 73 255 -39 133 -178 212 -309 175z m167
-37 c83 -39 125 -110 125 -209 0 -74 -23 -124 -80 -173 -127 -108 -320 -50
-366 111 -33 114 22 230 131 278 47 21 138 17 190 -7z"/>
<path d="M1588 3856 c-177 -48 -218 -279 -66 -382 90 -61 191 -52 268 25 60
60 78 119 61 195 -27 120 -145 194 -263 162z m118 -65 c107 -49 125 -193 32
-264 -105 -80 -250 -9 -250 123 0 75 40 129 112 151 40 12 62 10 106 -10z"/>
<path d="M4175 3734 c-233 -48 -377 -120 -522 -262 -184 -180 -297 -418 -329
-697 -4 -33 -12 -73 -19 -89 -12 -29 -12 -29 -96 -27 -97 2 -124 -9 -158 -62
-13 -20 -30 -37 -37 -37 -7 0 -22 -12 -33 -26 -20 -25 -21 -39 -21 -246 0
-131 4 -227 10 -239 6 -10 24 -26 40 -34 17 -9 30 -22 30 -29 0 -7 7 -19 15
-26 22 -18 23 -970 1 -970 -8 0 -29 -14 -46 -31 -30 -31 -31 -34 -29 -118 1
-83 -1 -94 -75 -311 -42 -123 -76 -237 -76 -251 0 -39 44 -87 86 -95 19 -3 34
-12 34 -19 0 -7 14 -25 31 -39 l31 -26 197 0 c184 0 200 1 224 20 14 11 28 29
32 39 3 11 19 21 39 25 40 8 83 45 91 79 5 17 -22 99 -89 275 -78 207 -94 258
-89 288 l6 36 30 -57 c35 -64 54 -75 128 -75 27 0 49 -5 49 -10 0 -17 63 -50
96 -50 22 0 42 10 64 30 l32 30 137 0 137 0 23 -31 c20 -27 21 -33 9 -47 -8
-9 -44 -96 -81 -193 -48 -129 -74 -184 -96 -207 -28 -28 -31 -36 -31 -95 0
-61 2 -67 31 -91 l31 -26 284 0 c177 0 293 4 305 10 56 30 66 156 16 208 -16
17 -47 85 -82 182 -31 85 -65 172 -76 193 l-19 38 22 29 23 29 140 0 c127 1
141 -1 152 -18 7 -11 28 -24 48 -31 41 -14 81 -2 111 31 14 16 31 19 101 19
46 0 93 5 104 10 10 6 30 32 43 58 23 45 24 46 31 21 5 -19 -17 -88 -84 -266
-51 -134 -91 -255 -91 -275 0 -42 40 -84 89 -94 21 -4 36 -15 41 -29 19 -51
39 -55 254 -55 l199 0 38 40 c21 22 48 40 60 40 49 0 99 51 99 101 0 11 -39
124 -86 252 -85 227 -86 234 -85 315 2 79 1 84 -28 112 -16 17 -37 30 -45 30
-14 0 -16 50 -16 479 0 328 3 482 11 486 5 4 14 18 19 31 5 13 16 24 24 24 8
0 24 12 35 26 20 25 21 39 21 249 0 210 -1 224 -21 249 -11 14 -27 26 -35 26
-8 0 -22 16 -31 35 -23 47 -65 65 -156 65 l-75 0 -20 43 c-11 23 -25 83 -31
132 -25 186 -113 392 -232 539 -148 183 -344 306 -561 350 -70 15 -251 20
-303 10z m360 -114 c245 -78 445 -258 561 -504 44 -94 83 -233 91 -323 l6 -73
-892 0 -891 0 0 29 c0 48 29 184 55 262 107 313 347 544 643 619 108 28 325
23 427 -10z m700 -990 c4 -7 -308 -9 -932 -8 l-938 3 930 5 c512 3 931 6 932
8 1 1 5 -2 8 -8z m-2025 -324 c0 -179 -4 -287 -10 -291 -7 -4 -10 93 -10 284
0 187 4 291 10 291 6 0 10 -101 10 -284z m2200 -7 c0 -191 -3 -288 -10 -284
-6 4 -10 112 -10 291 0 183 4 284 10 284 6 0 10 -104 10 -291z m-2240 1 l0
-270 -25 0 -25 0 0 254 c0 140 3 261 6 270 3 9 15 16 25 16 18 0 19 -12 19
-270z m110 0 l0 -270 -25 0 -25 0 0 270 0 270 25 0 25 0 0 -270z m2100 0 l0
-270 -30 0 -30 0 0 263 c0 145 3 267 7 270 3 4 17 7 30 7 l23 0 0 -270z m98
-2 l2 -268 -25 0 -25 0 0 271 0 270 23 -3 22 -3 3 -267z m-270 -535 l-3 -778
-905 0 -905 0 -3 778 -2 777 910 0 910 0 -2 -777z m-1871 445 c-1 -51 -3 -12
-3 87 0 99 2 141 3 93 2 -48 2 -129 0 -180z m1930 0 c-1 -51 -3 -12 -3 87 0
99 2 141 3 93 2 -48 2 -129 0 -180z m-2069 -741 c2 -502 2 -507 -18 -507 -20
0 -20 6 -20 511 0 481 1 510 18 507 16 -3 17 -37 20 -511z m42 3 c0 -447 -2
-510 -15 -510 -13 0 -15 63 -15 510 0 447 2 510 15 510 13 0 15 -63 15 -510z
m2150 0 c0 -447 -2 -510 -15 -510 -13 0 -15 63 -15 510 0 447 2 510 15 510 13
0 15 -63 15 -510z m50 0 c0 -503 0 -510 -20 -510 -20 0 -20 7 -20 503 0 277 3
507 7 510 3 4 12 7 20 7 11 0 13 -92 13 -510z m-1760 -595 l0 -55 -67 0 -68 0
-27 49 c-16 27 -28 52 -28 55 0 3 43 6 95 6 l95 0 0 -55z m550 0 l0 -55 -235
0 -235 0 0 55 0 55 235 0 235 0 0 -55z m550 0 l0 -55 -232 2 -233 3 -3 39 c-6
69 -17 66 238 66 l230 0 0 -55z m340 50 c0 -3 -11 -28 -25 -55 l-25 -50 -100
0 -100 0 0 55 0 55 125 0 c69 0 125 -2 125 -5z m-1792 -32 c3 -10 -28 -13
-133 -13 -122 0 -136 2 -125 15 11 13 35 15 133 13 85 -2 122 -7 125 -15z
m2196 11 c42 -16 4 -24 -119 -24 -123 0 -147 4 -128 23 8 9 226 9 247 1z
m-2194 -64 c0 -20 -5 -20 -132 -18 -117 3 -133 5 -136 21 -3 15 8 17 132 17
130 0 136 -1 136 -20z m2208 3 c-3 -16 -19 -18 -136 -21 -127 -2 -132 -2 -132
18 0 19 6 20 136 20 124 0 135 -2 132 -17z m-2416 -323 l3 -250 -101 0 c-55 0
-103 3 -107 6 -4 4 91 295 158 482 2 6 13 12 24 12 20 0 20 -8 23 -250z m69
-103 c9 -6 24 -7 33 -4 14 6 16 29 16 182 0 112 4 175 10 175 7 0 9 -85 8
-247 l-3 -248 -44 -3 c-28 -2 -47 1 -52 10 -11 16 -12 472 -1 482 4 4 9 -70
12 -165 4 -144 8 -174 21 -182z m226 111 c51 -133 90 -246 87 -250 -3 -4 -52
-8 -110 -8 l-104 0 0 250 c0 234 1 250 18 250 14 0 37 -49 109 -242z m821 222
c7 -11 23 -20 37 -20 14 0 29 8 35 20 11 21 60 29 60 10 0 -16 -62 -50 -90
-50 -29 0 -92 31 -98 48 -7 21 43 13 56 -8z m1074 -230 l3 -250 -107 0 c-59 0
-109 3 -111 8 -4 6 161 455 178 481 3 6 13 11 20 11 12 0 15 -43 17 -250z m56
-107 c8 -10 51 0 56 13 3 9 6 90 6 180 0 104 4 164 10 164 7 0 9 -85 8 -247
l-3 -248 -50 0 -50 0 -3 235 c-1 129 1 241 5 250 5 8 10 -66 14 -165 3 -99 6
-181 7 -182z m160 340 c16 -30 172 -458 172 -471 0 -9 -32 -12 -112 -12 l-113
0 3 250 c3 239 3 250 22 250 11 0 23 -8 28 -17z m-1230 -100 c-10 -2 -28 -2
-40 0 -13 2 -5 4 17 4 22 1 32 -1 23 -4z m-48 -233 l0 -170 -94 0 -94 0 64
166 c35 92 64 168 64 170 0 2 14 4 30 4 l30 0 0 -170z m132 98 c15 -40 42
-117 62 -170 l36 -98 -95 0 -95 0 0 170 0 170 33 0 c32 0 34 -2 59 -72z m-994
-310 c-4 -10 -51 -14 -181 -16 -153 -2 -177 0 -177 13 0 13 26 15 181 15 140
0 180 -3 177 -12z m2182 -3 c0 -13 -26 -15 -175 -15 -149 0 -175 2 -175 15 0
13 26 15 175 15 149 0 175 -2 175 -15z m-1040 -25 c0 -6 -93 -10 -260 -10
-167 0 -260 4 -260 10 0 6 93 10 260 10 167 0 260 -4 260 -10z m0 -40 c0 -6
-93 -10 -260 -10 -167 0 -260 4 -260 10 0 6 93 10 260 10 167 0 260 -4 260
-10z"/>
<path d="M4116 3591 c-12 -13 -24 -77 -46 -232 -25 -190 -27 -216 -14 -236 14
-23 17 -23 247 -23 168 0 236 3 245 12 17 17 15 47 -18 266 -26 166 -34 200
-51 215 -18 15 -44 17 -184 17 -145 0 -164 -2 -179 -19z m265 -124 c47 -31 82
-104 73 -151 -15 -84 -85 -140 -165 -133 -149 13 -195 200 -69 284 45 31 115
31 161 0z"/>
<path d="M4235 3461 c-52 -31 -68 -58 -72 -114 -7 -90 49 -151 137 -151 83 0
140 59 140 146 0 102 -120 172 -205 119z m135 -46 c0 -8 -7 -15 -15 -15 -8 0
-15 7 -15 15 0 8 7 15 15 15 8 0 15 -7 15 -15z m30 -44 c21 -40 5 -111 -25
-111 -8 0 -19 9 -25 19 -21 40 -5 111 25 111 8 0 19 -9 25 -19z"/>
<path d="M4665 3131 c-134 -62 -155 -244 -40 -339 131 -108 328 -14 328 157 0
32 -7 69 -16 86 -20 40 -75 91 -110 104 -43 17 -117 13 -162 -8z m164 -26 c72
-37 112 -124 91 -199 -52 -187 -322 -165 -338 27 -6 80 37 153 108 180 30 11
112 7 139 -8z"/>
<path d="M4683 3060 c-115 -70 -63 -250 72 -250 76 0 135 59 135 135 0 106
-116 171 -207 115z"/>
<path d="M3602 3084 c-21 -14 -22 -21 -22 -168 0 -105 4 -156 12 -164 7 -7 40
-12 80 -12 56 0 69 3 78 19 5 11 10 84 10 165 0 138 -1 146 -22 160 -12 9 -43
16 -68 16 -25 0 -56 -7 -68 -16z"/>
<path d="M4979 3084 c-10 -12 -14 -57 -16 -157 -4 -166 4 -187 65 -187 21 0
43 5 50 12 15 15 17 301 2 329 -14 24 -81 27 -101 3z"/>
<path d="M3816 3074 c-13 -13 -16 -42 -16 -164 0 -142 1 -150 22 -164 12 -9
43 -16 68 -16 25 0 56 7 68 16 21 14 22 21 22 168 0 105 -4 156 -12 164 -18
18 -133 15 -152 -4z"/>
<path d="M4080 3034 c-6 -14 -10 -69 -10 -122 0 -149 -11 -142 229 -142 140 0
200 3 209 12 17 17 17 249 0 266 -9 9 -70 12 -215 12 l-203 0 -10 -26z"/>
<path d="M3446 2504 c-14 -14 -16 -94 -16 -734 0 -701 0 -720 19 -730 11 -5
76 -10 145 -10 118 0 126 1 140 22 14 20 16 105 16 725 0 690 0 703 -20 723
-18 18 -33 20 -144 20 -100 0 -128 -3 -140 -16z m256 -15 c17 -9 18 -53 18
-712 0 -534 -3 -706 -12 -715 -15 -15 -211 -16 -239 -2 -18 10 -19 29 -19 715
0 660 1 705 18 714 22 12 211 12 234 0z"/>
<path d="M3492 2464 l-22 -15 0 -679 0 -679 22 -15 c15 -11 46 -16 96 -16 64
0 76 3 97 25 l25 24 0 656 c0 657 -1 686 -34 707 -22 15 -160 9 -184 -8z m179
-4 c18 -10 19 -24 19 -318 l0 -307 -87 3 c-88 2 -122 -6 -109 -27 5 -7 40 -10
99 -9 l92 2 -95 6 -95 7 95 -1 95 -1 0 -65 0 -65 -95 -1 -95 -1 95 7 95 7 -94
-1 c-66 -1 -96 -5 -99 -13 -3 -10 21 -13 97 -13 l101 0 -2 -292 -3 -293 -94
-3 c-69 -2 -97 1 -103 10 -4 7 -8 315 -8 685 0 630 1 673 18 682 22 14 148 14
173 1z"/>
<path d="M3495 1760 c-14 -23 10 -30 98 -28 l92 2 -87 3 c-49 2 -88 8 -88 13
0 5 39 11 88 13 l87 3 -92 2 c-53 1 -94 -2 -98 -8z"/>
<path d="M4852 2494 l-22 -15 0 -718 c0 -612 2 -720 14 -730 20 -17 262 -17
282 0 12 10 14 118 14 730 l0 718 -22 15 c-17 12 -49 16 -133 16 -84 0 -116
-4 -133 -16z m263 -734 l0 -715 -130 0 -130 0 -3 705 c-1 388 0 711 3 718 3 9
36 12 132 10 l128 -3 0 -715z"/>
<path d="M3850 2480 c-11 -11 -20 -29 -20 -40 0 -11 9 -29 20 -40 19 -19 33
-20 438 -20 393 0 420 1 435 18 24 26 21 68 -5 86 -19 14 -78 16 -435 16 -400
0 -414 -1 -433 -20z"/>
<path d="M3858 2279 c-22 -12 -24 -71 -4 -88 10 -8 134 -11 436 -11 382 0 425
1 441 16 23 21 24 42 3 72 l-15 22 -422 0 c-268 0 -428 -4 -439 -11z"/>
<path d="M3856 2064 c-21 -21 -20 -57 2 -77 17 -15 62 -17 440 -17 369 0 422
2 436 16 19 18 21 65 4 82 -9 9 -120 12 -439 12 -375 0 -429 -2 -443 -16z
m637 -41 c-112 -2 -294 -2 -405 0 -112 1 -21 2 202 2 223 0 314 -1 203 -2z"/>
<path d="M3792 1918 c-9 -9 -12 -121 -12 -444 0 -377 2 -433 15 -444 20 -17
111 -16 130 0 13 11 15 75 15 437 0 273 -4 431 -10 444 -9 15 -22 19 -68 19
-32 0 -63 -5 -70 -12z m126 -441 l2 -427 -26 -10 c-38 -15 -62 -12 -84 10 -19
19 -20 33 -20 421 0 263 4 407 11 420 8 17 19 20 62 17 l52 -3 3 -428z"/>
<path d="M4097 1912 c-13 -14 -17 -45 -19 -157 l-3 -140 -37 -6 c-70 -11 -68
-2 -68 -293 0 -211 3 -266 14 -282 14 -18 31 -19 291 -22 238 -3 280 -1 301
13 l24 15 0 270 c0 267 0 269 -22 284 -12 9 -37 16 -54 16 l-33 0 -3 146 c-3
131 -5 147 -22 160 -15 11 -58 14 -186 14 -148 0 -169 -2 -183 -18z m361 -159
l3 -143 -181 0 -180 0 0 138 c0 76 3 142 7 146 4 3 84 5 177 4 l171 -3 3 -142z
m116 -189 c3 -9 6 -125 6 -259 0 -193 -3 -245 -14 -254 -9 -8 -94 -11 -287 -9
l-274 3 -3 255 c-1 140 0 260 3 267 3 10 67 13 284 13 245 0 280 -2 285 -16z"/>
<path d="M4142 1848 c-18 -18 -15 -36 7 -48 11 -5 71 -10 135 -10 91 0 118 3
130 16 19 19 20 26 4 42 -8 8 -53 12 -138 12 -85 0 -130 -4 -138 -12z m258
-23 c0 -16 -242 -13 -248 3 -3 10 23 12 122 10 76 -2 126 -7 126 -13z"/>
<path d="M4140 1764 c-10 -11 -11 -20 -3 -32 9 -15 30 -17 144 -17 l134 0 0
30 0 30 -131 3 c-111 2 -133 0 -144 -14z m260 -19 c0 -12 -20 -15 -119 -15
-109 0 -142 6 -124 24 3 3 60 6 125 6 98 0 118 -3 118 -15z"/>
<path d="M4134 1675 c-4 -8 -4 -22 0 -30 5 -13 27 -15 143 -13 l138 3 0 25 0
25 -138 3 c-116 2 -138 0 -143 -13z m264 -12 c3 -10 -26 -13 -122 -13 -116 0
-138 4 -119 24 13 12 236 2 241 -11z"/>
<path d="M4225 1541 c-215 -56 -250 -347 -55 -446 57 -29 149 -34 203 -12 112
48 172 178 135 298 -14 50 -69 114 -118 139 -43 22 -122 32 -165 21z m131 -34
c76 -33 125 -93 138 -169 21 -119 -90 -248 -214 -248 -132 0 -237 132 -209
260 14 64 46 107 104 141 56 32 130 39 181 16z"/>
<path d="M4228 1501 c-85 -27 -148 -111 -148 -196 0 -53 35 -121 82 -158 66
-53 181 -50 245 6 103 91 95 250 -18 319 -48 30 -118 42 -161 29z m105 -58 c2
-5 1 -19 -2 -33 -5 -22 -12 -25 -46 -25 -44 0 -55 8 -55 43 0 20 5 22 49 22
28 0 52 -3 54 -7z m-30 -80 c-7 -2 -21 -2 -30 0 -10 3 -4 5 12 5 17 0 24 -2
18 -5z m-119 -13 c15 0 16 -82 1 -92 -5 -4 -18 -8 -27 -8 -15 0 -18 9 -18 56
0 47 3 55 16 50 9 -3 21 -6 28 -6z m54 -10 c-7 -10 -14 -17 -17 -15 -4 4 18
35 25 35 2 0 -1 -9 -8 -20z m192 -36 c0 -54 -1 -56 -22 -50 -13 3 -27 6 -32 6
-4 0 -5 11 -2 25 4 14 2 34 -4 44 -8 16 -6 21 8 24 49 13 52 10 52 -49z m-190
-49 c14 -19 14 -19 -2 -6 -10 7 -18 18 -18 24 0 6 1 8 3 6 1 -2 9 -13 17 -24z
m86 -10 c-11 -8 -31 -15 -45 -14 -23 1 -22 2 7 9 18 4 36 10 39 14 4 3 9 6 12
6 3 0 -3 -7 -13 -15z m6 -45 c15 -34 9 -40 -47 -40 -56 0 -63 7 -50 42 7 19
88 17 97 -2z"/>
<path d="M4532 1908 c-17 -17 -17 -259 0 -276 8 -8 51 -12 129 -12 149 0 149
0 149 150 0 150 0 150 -149 150 -78 0 -121 -4 -129 -12z m246 -20 c18 -18 16
-222 -2 -237 -9 -8 -51 -11 -122 -9 l-109 3 -3 114 c-1 63 0 121 2 128 7 18
216 19 234 1z"/>
<path d="M4640 1471 c-6 -12 -10 -99 -10 -213 0 -232 2 -238 84 -238 85 0 86
2 86 234 0 117 -4 205 -10 217 -9 16 -22 19 -75 19 -53 0 -66 -3 -75 -19z
m138 -3 c9 -9 12 -69 12 -209 0 -225 -1 -229 -75 -229 -73 0 -75 4 -75 221 0
112 4 198 10 210 9 15 22 19 63 19 29 0 58 -5 65 -12z"/>
</g>
</svg>
